<?xml version="1.0" encoding="UTF-8"?><svg id="Layer_1" xmlns="http://www.w3.org/2000/svg" viewBox="0 0 55.1 52.57"><defs><style>.cls-1{fill:#006647;}.cls-2{fill:#fee300;}.cls-3{fill:#fff;}.cls-4{fill:#c3002f;}</style></defs><path class="cls-2" d="M53.65,17.26c0-.45-.37-.82-.82-.82h-.63c-.49,0-.95.25-1.22.66l-2,3.16c-.34.53-.93.85-1.56.85h-1.38c-.41-.02-.8.21-1,.57-.47.87-1.31,1.46-2.28,1.62v10.87c1.55.17,2.74,1.09,2.74,2.21s-1.45,2.24-3.24,2.24-3.24-1-3.24-2.24,1.19-2,2.73-2.21v-10.86c-.97-.16-1.81-.75-2.28-1.62-.2-.36-.59-.59-1-.57h-.93c-.43,0-.83.25-1,.65l-.77,1.73c-.34.77-1.24,1.12-2.02.78-.35-.15-.63-.43-.78-.78l-.77-1.73c-.17-.4-.57-.65-1-.65H5.39c-.18.71-.81,1.2-1.54,1.2h-.75v.93c0,1.33-.26,2.65-.78,3.88l-.69,1.66c-2.28,5.42-.03,11.68,5.19,14.4l3.45,1.81h3c.85,0,1.69.23,2.44.64l1.56.86h2.12c.92,0,1.82.25,2.61.72l.93.56c.91.55,1.94.86,3,.92v-1c0-1.86,1.1-3.55,2.81-4.3l2.67-1.17c.63-.28,1.34-.32,2-.12l1.27.38c.39.12.82.12,1.21,0l3-.89c.55-.17,1.14-.17,1.69,0l1,.32c1.38.43,2.31,1.7,2.31,3.14v2.52c-.03.61.43,1.13,1.04,1.16.53.03,1.01-.33,1.13-.85.43-1.47.62-3.01.58-4.54v-.27c-.03-1.16.43-2.28,1.27-3.08l1.25-1.19c.7-.67,1.09-1.59,1.09-2.55v-5.92c0-1.35.41-2.66,1.18-3.77l.59-.86v-1.18c0-1.34.41-2.65,1.17-3.75l1-1.38c-.32-.34-.5-.79-.5-1.26l-.04-.88Z"/><path class="cls-3" d="M21.63,47.93c-.56-.33-1.18-.53-1.83-.59v2.38c.79.06,1.55.3,2.23.7l1.45.87c.66.4,1.42.62,2.19.63.07,0,.15-.02.2-.07.06-.05.09-.12.09-.2v-2.15c-1.19-.05-2.35-.4-3.38-1l-.95-.57Z"/><path class="cls-3" d="M15.34,46.34c-.61-.34-1.3-.53-2-.54v2.38c.84.01,1.66.23,2.39.64l1.34.75v-2.28h-.05l-1.68-.95Z"/><path class="cls-3" d="M33.2,42.93c-.2-.06-.4-.08-.61-.08v2.38c.28,0,.56.03.83.11l1.27.38c.16.05.33.07.5.08v-2.38c-.24,0-.49-.04-.72-.11l-1.27-.38Z"/><path class="cls-3" d="M41.37,42.74l-1-.31c-.22-.07-.46-.1-.69-.09v2.38c.3,0,.6.03.89.12l1.21.34c.61.18,1.1.62,1.35,1.2v-1.23c0-1.1-.72-2.08-1.77-2.41"/><path class="cls-3" d="M45.01,49.5h-.14v2.37h.19c.7,0,1.32-.45,1.53-1.12l.06-.2v-2c-.32.61-.95.99-1.63,1"/><path class="cls-3" d="M2.13,40.02v2.06c.94,1.65,2.32,3.01,4,3.9l.64.34v-2.28l-.34-.18c-1.74-.91-3.22-2.23-4.34-3.84"/><polygon class="cls-3" points="8.32 44.84 8.32 47.12 10.01 48.01 10.01 45.73 10.01 45.72 8.32 44.84"/><path class="cls-3" d="M44.2,36.92c0-.52-.62-1-1.47-1.08v2.16c.84-.13,1.47-.56,1.47-1.08"/><path class="cls-3" d="M40.27,36.92c0,.52.62,1,1.46,1.08v-2.16c-.84.13-1.46.56-1.46,1.08"/><path class="cls-4" d="M37.62,2.67c-.78-.11-1.57.1-2.19.58-.26.14-.45.39-.51.68l-1.15,5.36c-.03.15.07.3.22.33.04,0,.07,0,.11,0,1.21-.28,2.35-1.33,3.56-1s2.71-1.3,4.06-1.28V1.2c-1.36,0-2.76,1.88-4.11,1.46"/><path class="cls-1" d="M53.2,20.87c-.76,1.1-1.17,2.41-1.17,3.75v1.18l-.59.86c-.77,1.11-1.18,2.42-1.18,3.77v5.92c0,.96-.39,1.88-1.09,2.55l-1.25,1.19c-.84.8-1.3,1.92-1.27,3.08v.27c.04,1.53-.15,3.07-.58,4.54-.14.59-.73.96-1.32.82-.52-.12-.88-.6-.85-1.13v-2.52c0-1.44-.93-2.71-2.31-3.14l-1-.32c-.55-.17-1.14-.17-1.69,0l-3,.89c-.39.12-.82.12-1.21,0l-1.27-.38c-.66-.2-1.37-.16-2,.12l-2.66,1.18c-1.71.75-2.81,2.44-2.81,4.3v1c-1.06-.06-2.09-.37-3-.92l-.93-.56c-.79-.47-1.69-.72-2.61-.72h-2.14l-1.57-.88c-.75-.41-1.59-.63-2.44-.64h-3l-3.45-1.82c-5.22-2.72-7.48-8.99-5.19-14.41l.69-1.66c.51-1.23.77-2.54.77-3.87v-.93h.75c.73,0,1.36-.49,1.54-1.2h25.9c.43,0,.82.26,1,.65l.77,1.73c.34.77,1.24,1.12,2.02.78.35-.15.63-.43.78-.78l.77-1.73c.17-.4.57-.65,1-.65h.93c.41-.02.8.21,1,.57.47.87,1.31,1.46,2.28,1.62v10.87c-1.55.17-2.73,1.09-2.73,2.22s1.45,2.24,3.24,2.24,3.24-1,3.24-2.24-1.19-2-2.74-2.22v-10.94c.97-.16,1.81-.75,2.28-1.62.2-.36.59-.59,1-.57h1.38c.63,0,1.22-.32,1.56-.85l2-3.17c.27-.41.73-.66,1.22-.66h.63c.45,0,.82.37.82.82h0v1c0,.47.18.92.5,1.26l-1.02,1.35ZM46.64,50.59c0,.07,0,.14-.06.21-.21.67-.83,1.12-1.53,1.12h-.19v-2.42h.14c.68-.01,1.31-.39,1.63-1v2.09ZM43.14,46.37c-.25-.58-.74-1.02-1.35-1.2l-1.21-.34c-.29-.09-.59-.13-.89-.12v-2.38c.23,0,.47.02.69.09l1,.31c1.05.33,1.77,1.31,1.77,2.41v1.23ZM35.14,45.79c-.17,0-.34-.03-.5-.08l-1.27-.38c-.27-.08-.55-.11-.83-.11v-2.38c.21,0,.41.02.61.08l1.27.38c.23.07.48.1.72.11v2.38ZM25.9,50.14v1.49c0,.08-.03.15-.09.2-.05.05-.13.08-.2.08-.77-.02-1.53-.23-2.19-.63l-1.44-.87c-.68-.4-1.44-.64-2.23-.7v-2.38c.65.06,1.27.26,1.83.59l.94.56c1.03.6,2.19.95,3.38,1v.66ZM17.01,49.55l-1.34-.75c-.73-.41-1.55-.63-2.39-.64v-2.36c.7.01,1.39.2,2,.54l1.66.93h.05l.02,2.28ZM10.01,48l-1.69-.89v-2.28l1.68.89h0v2.28ZM6.81,46.32l-.64-.33c-1.68-.89-3.06-2.25-4-3.9v-2.06c1.12,1.61,2.6,2.93,4.34,3.84l.34.18-.04,2.27ZM42.73,35.84c.84.13,1.47.56,1.47,1.08s-.62,1-1.47,1.08v-2.16ZM41.73,37.99c-.84-.13-1.47-.56-1.47-1.08s.62-.95,1.47-1.08v2.16ZM54.88,19.09c-.3-.19-.47-.52-.46-.87v-1c0-.88-.71-1.59-1.59-1.59h-.63c-.75,0-1.45.37-1.86,1l-2,3.16c-.2.31-.55.5-.92.5h-1.38c-.69,0-1.32.39-1.64,1-.33.62-.92,1.06-1.61,1.2V.5c0-.28-.22-.5-.5-.5s-.5.22-.5.5v22c-.69-.14-1.28-.58-1.61-1.2-.32-.61-.95-1-1.64-1h-.93c-.73,0-1.4.43-1.7,1.1l-.77,1.73c-.17.38-.62.56-1,.39-.17-.08-.31-.21-.39-.39l-.77-1.73c-.3-.67-.96-1.11-1.7-1.11H5.05c-.21,0-.38.17-.38.38h0c0,.45-.36.81-.81.82h-1.13c-.21,0-.38.17-.38.38h0v1.31c0,1.23-.24,2.45-.72,3.58l-.69,1.66C.32,29.91,0,31.51,0,33.12v3.82c0,1.05.15,2.09.45,3.1.82,2.83,2.77,5.2,5.38,6.57l4.18,2.2c.06.01.12.01.18,0h3.09c.72,0,1.44.19,2.07.54l1.66.93c.06.02.13.02.19,0h2.22c.78,0,1.54.21,2.21.61l1.45.87c.76.46,1.64.72,2.53.74.55.06,1.04-.35,1.1-.89,0-.03,0-.07,0-.11v-1.49c0-1.08.64-2.06,1.63-2.49l3.39-1.49c.46-.2.98-.24,1.47-.09l1.27.38c.54.16,1.11.16,1.65,0l3-.89c.4-.12.83-.12,1.23,0l1.22.34c.59.15,1,.68,1,1.28v3c0,1.39,1.13,2.52,2.52,2.52,1.03,0,1.95-.66,2.26-1.65.57-1.78.85-3.64.85-5.51v-1.27c0-.9.35-1.76,1-2.39l1.25-1.18c.85-.81,1.33-1.92,1.33-3.09v-6.98c.01-1.1.36-2.16,1-3.05.05-.06.07-.14.07-.22v-1.63c0-1.07.33-2.12.94-3l1.24-1.8c.05-.06.07-.14.07-.22v-1.13c0-.13-.06-.25-.17-.32"/></svg>